<svg xmlns="http://www.w3.org/2000/svg" xmlns:xlink="http://www.w3.org/1999/xlink" viewBox="0 0 332.66 181.76"><defs><style>.cls-1,.cls-4{fill:none;}.cls-2{clip-path:url(#clip-path);}.cls-3{clip-path:url(#clip-path-2);}.cls-4{stroke:#231815;stroke-width:0.51px;}.cls-5,.cls-6,.cls-7,.cls-8,.cls-9{fill:#231815;}.cls-6,.cls-7,.cls-8{font-size:7.39px;}.cls-6{font-family:ArialMT, Arial;}.cls-7{font-family:Arial-BoldMT, Arial;}.cls-7,.cls-9{font-weight:700;}.cls-8{font-family:Arial-ItalicMT, Arial;font-style:italic;}.cls-9{font-size:8.32px;font-family:Humanist521BT-BoldCondensed, Humanist521BT BoldCondensed;}</style><clipPath id="clip-path" transform="translate(0 -0.27)"><rect class="cls-1" width="333.56" height="182.03"/></clipPath><clipPath id="clip-path-2" transform="translate(0 -0.27)"><rect class="cls-1" y="0.27" width="332.66" height="181.76"/></clipPath></defs><title>gradient descent</title><g id="图层_2" data-name="图层 2"><g id="图层_1-2" data-name="图层 1"><g class="cls-2"><g class="cls-3"><path class="cls-4" d="M122.9,74h86.87v30.9H122.9Zm138,.28h71.54v30.89H260.87ZM.26,74.23H71.8v30.89H.26ZM209.77,89.79h49.57" transform="translate(0 -0.27)"/><polyline class="cls-5" points="255.39 92.16 260.87 89.52 255.39 86.89 257.23 89.52 255.39 92.16"/><line class="cls-4" x1="73.33" y1="89.52" x2="122.9" y2="89.52"/><polyline class="cls-5" points="77.27 86.89 71.8 89.52 77.27 92.16 75.43 89.52 77.27 86.89"/><path class="cls-4" d="M122.9,18.25h86.87V49.15H122.9ZM296.64,74.46c1.27-82.21-63.83-87-96.12-57.12" transform="translate(0 -0.27)"/><polyline class="cls-5" points="201.65 12.28 199.54 17.98 205.31 16.06 202.16 15.45 201.65 12.28"/><path class="cls-4" d="M36,74.46C28.15-1,85-15,126,16.24" transform="translate(0 -0.27)"/><polyline class="cls-5" points="121.93 15.95 127.65 17.98 125.66 12.24 125.09 15.4 121.93 15.95"/><line class="cls-4" x1="168.88" y1="48.64" x2="168.88" y2="72.66"/><polyline class="cls-5" points="166.25 68.72 168.88 74.19 171.52 68.72 168.88 70.56 166.25 68.72"/><path class="cls-4" d="M122.9,150.88h86.87v30.9H122.9Zm46-45.75v44.46" transform="translate(0 -0.27)"/><polyline class="cls-5" points="166.25 145.37 168.88 150.84 171.52 145.37 168.88 147.21 166.25 145.37"/><text class="cls-6" transform="translate(129.95 85.46)">Is the gradient positive,</text><text class="cls-6" transform="translate(138.38 96.54)">negative, or zero?</text><path class="cls-5" d="M191.1,32.91H191l.18-1c.14-.75.38-1.08.78-1.08a.73.73,0,0,1,.63.34l.09,0c0-.14.13-.41.2-.58l0-.13a1.8,1.8,0,0,0-.61-.11.82.82,0,0,0-.3.06,6.83,6.83,0,0,0-1.12.83,1.7,1.7,0,0,0-.39.95l-.13.69a6.75,6.75,0,0,1-.75.32l0,.19h.7l-.08.49a35.18,35.18,0,0,1-.77,3.91c-.16.51-.42.78-.73.78a.51.51,0,0,1-.45-.25l-.12,0a4.06,4.06,0,0,1-.2.69.71.71,0,0,0,.3.07,1.72,1.72,0,0,0,1.16-.68c.62-.73.79-1.56,1.52-5h.9a2.93,2.93,0,0,1,.15-.49l0-.06a2.18,2.18,0,0,1-.79.08" transform="translate(0 -0.27)"/><path class="cls-5" d="M193.75,32.63a7.48,7.48,0,0,0,1.12-2l-.11-.11-.84.26a4,4,0,0,1-.68,1.94l.13.09.38-.21" transform="translate(0 -0.27)"/><path class="cls-5" d="M198.32,36.7a.85.85,0,0,0,.37.1,1.26,1.26,0,0,0,.9-.66l.66-1,.1.6c.11.74.31,1.08.63,1.08a1.32,1.32,0,0,0,.75-.4l.43-.38-.08-.17a1.37,1.37,0,0,1-.67.39c-.13,0-.24-.09-.33-.26a3.44,3.44,0,0,1-.22-.74l-.16-.88.3-.43c.41-.56.64-.76.91-.76a.28.28,0,0,1,.29.2l.12,0,.13-.74a.51.51,0,0,0-.26-.09c-.35,0-.69.31-1.23,1.11l-.32.48-.05-.42c-.1-.86-.34-1.17-.85-1.17a.61.61,0,0,0-.5.18l-.5.72.15.09c.26-.29.43-.42.6-.42s.48.36.63,1.21l.1.54-.35.54c-.37.58-.67.86-.91.86s-.23,0-.24-.08l-.1-.24-.17,0a4.26,4.26,0,0,1-.1.76" transform="translate(0 -0.27)"/><text class="cls-6" transform="translate(127.59 36.38)">Compute gradient </text><path class="cls-5" d="M196.56,34.4a5,5,0,0,1,1.35-3.77l-.17-.23a5,5,0,0,0-1.93,4,5.46,5.46,0,0,0,.63,2.59,5.32,5.32,0,0,0,1.29,1.59l.17-.18a5.6,5.6,0,0,1-1.35-4" transform="translate(0 -0.27)"/><path class="cls-5" d="M202.93,30.4l-.17.23a5.06,5.06,0,0,1,1.35,3.77,5.6,5.6,0,0,1-1.35,4l.17.18a5.34,5.34,0,0,0,1.93-4.17,5,5,0,0,0-1.93-4" transform="translate(0 -0.27)"/><text class="cls-6" transform="translate(268.31 85.52)">Move </text><text class="cls-7" transform="translate(288.44 85.52)">x</text><text class="cls-6" transform="translate(292.54 85.52)"><tspan xml:space="preserve"> to the left</tspan></text><text class="cls-6" transform="translate(268.31 96.61)">(make it smaller).</text><text class="cls-8" transform="translate(223.86 83.98)">Positive</text><text class="cls-6" transform="translate(4.84 86.89)">Move </text><text class="cls-7" transform="translate(24.97 86.89)">x</text><text class="cls-6" transform="translate(29.07 86.89)"><tspan xml:space="preserve"> to the right</tspan></text><text class="cls-6" transform="translate(9.57 97.98)">(make it larger).</text><text class="cls-8" transform="translate(83.52 83.98)">Negative</text><text class="cls-6" transform="translate(136.01 168.96)">Stop. You are done!</text><text class="cls-6" transform="translate(197.69 161.06)"> </text><text class="cls-9" transform="translate(176.11 119.67)">It's zero or</text><text class="cls-9" transform="translate(176.11 128.45)">super close </text><text class="cls-9" transform="translate(176.11 137.23)">to it.</text><text class="cls-6" transform="translate(205.59 36.56)">.</text></g></g></g></g></svg>